<svg width="141" height="30" viewBox="0 0 141 30" fill="none" xmlns="http://www.w3.org/2000/svg">
<path d="M2.352 0.599998H13.072C13.6267 0.599998 14.0853 0.781332 14.448 1.144C14.832 1.48533 15.024 1.93333 15.024 2.488C15.024 3.02133 14.832 3.45867 14.448 3.8C14.0853 4.12 13.6267 4.28 13.072 4.28H4.112L4.4 3.736V9.976L4.144 9.72H11.632C12.1867 9.72 12.6453 9.90133 13.008 10.264C13.392 10.6053 13.584 11.0533 13.584 11.608C13.584 12.1413 13.392 12.5787 13.008 12.92C12.6453 13.24 12.1867 13.4 11.632 13.4H4.24L4.4 13.144V19.608L4.144 19.32H13.072C13.6267 19.32 14.0853 19.512 14.448 19.896C14.832 20.2587 15.024 20.6853 15.024 21.176C15.024 21.7093 14.832 22.1467 14.448 22.488C14.0853 22.8293 13.6267 23 13.072 23H2.352C1.79733 23 1.328 22.8187 0.944 22.456C0.581333 22.072 0.4 21.6027 0.4 21.048V2.552C0.4 1.99733 0.581333 1.53867 0.944 1.176C1.328 0.791999 1.79733 0.599998 2.352 0.599998ZM27.5445 5.56C29.1232 5.56 30.3178 5.89067 31.1285 6.552C31.9605 7.21333 32.5258 8.09867 32.8245 9.208C33.1445 10.296 33.3045 11.512 33.3045 12.856V21.048C33.3045 21.6027 33.1232 22.072 32.7605 22.456C32.3978 22.8187 31.9392 23 31.3845 23C30.8298 23 30.3712 22.8187 30.0085 22.456C29.6458 22.072 29.4645 21.6027 29.4645 21.048V12.856C29.4645 12.152 29.3685 11.5227 29.1765 10.968C29.0058 10.392 28.6858 9.93333 28.2165 9.592C27.7472 9.25067 27.0752 9.08 26.2005 9.08C25.3472 9.08 24.6218 9.25067 24.0245 9.592C23.4485 9.93333 23.0005 10.392 22.6805 10.968C22.3818 11.5227 22.2325 12.152 22.2325 12.856V21.048C22.2325 21.6027 22.0512 22.072 21.6885 22.456C21.3258 22.8187 20.8672 23 20.3125 23C19.7578 23 19.2992 22.8187 18.9365 22.456C18.5738 22.072 18.3925 21.6027 18.3925 21.048V7.832C18.3925 7.27733 18.5738 6.81867 18.9365 6.456C19.2992 6.072 19.7578 5.88 20.3125 5.88C20.8672 5.88 21.3258 6.072 21.6885 6.456C22.0512 6.81867 22.2325 7.27733 22.2325 7.832V9.208L21.7525 9.112C21.9445 8.74933 22.2218 8.36533 22.5845 7.96C22.9472 7.53333 23.3738 7.13867 23.8645 6.776C24.3552 6.41333 24.9098 6.12533 25.5285 5.912C26.1472 5.67733 26.8192 5.56 27.5445 5.56ZM45.519 23.32C43.7057 23.32 42.127 22.9467 40.783 22.2C39.4603 21.432 38.4363 20.3973 37.711 19.096C37.007 17.7947 36.655 16.3227 36.655 14.68C36.655 12.76 37.039 11.128 37.807 9.784C38.5963 8.41867 39.6203 7.37333 40.879 6.648C42.1377 5.92267 43.471 5.56 44.879 5.56C45.967 5.56 46.991 5.784 47.951 6.232C48.9323 6.68 49.7963 7.29867 50.543 8.088C51.2897 8.856 51.8763 9.752 52.303 10.776C52.751 11.8 52.975 12.888 52.975 14.04C52.9537 14.552 52.751 14.968 52.367 15.288C51.983 15.608 51.535 15.768 51.023 15.768H38.799L37.839 12.568H49.583L48.879 13.208V12.344C48.8363 11.7253 48.6123 11.1707 48.207 10.68C47.823 10.1893 47.3323 9.80533 46.735 9.528C46.159 9.22933 45.5403 9.08 44.879 9.08C44.239 9.08 43.6417 9.16533 43.087 9.336C42.5323 9.50667 42.0523 9.79467 41.647 10.2C41.2417 10.6053 40.9217 11.1493 40.687 11.832C40.4523 12.5147 40.335 13.3787 40.335 14.424C40.335 15.576 40.5697 16.5573 41.039 17.368C41.5297 18.1573 42.1483 18.7653 42.895 19.192C43.663 19.5973 44.4737 19.8 45.327 19.8C46.1163 19.8 46.7457 19.736 47.215 19.608C47.6843 19.48 48.0577 19.3307 48.335 19.16C48.6337 18.968 48.9003 18.808 49.135 18.68C49.519 18.488 49.8817 18.392 50.223 18.392C50.6923 18.392 51.0763 18.552 51.375 18.872C51.695 19.192 51.855 19.5653 51.855 19.992C51.855 20.568 51.5563 21.0907 50.959 21.56C50.4043 22.0293 49.6257 22.4453 48.623 22.808C47.6203 23.1493 46.5857 23.32 45.519 23.32ZM58.25 23C57.6953 23 57.2367 22.8187 56.874 22.456C56.5113 22.072 56.33 21.6027 56.33 21.048V7.832C56.33 7.27733 56.5113 6.81867 56.874 6.456C57.2367 6.072 57.6953 5.88 58.25 5.88C58.8047 5.88 59.2633 6.072 59.626 6.456C59.9887 6.81867 60.17 7.27733 60.17 7.832V10.84L59.946 8.696C60.1807 8.184 60.4793 7.736 60.842 7.352C61.226 6.94667 61.6527 6.616 62.122 6.36C62.5913 6.08267 63.0927 5.88 63.626 5.752C64.1593 5.624 64.6927 5.56 65.226 5.56C65.866 5.56 66.3993 5.74133 66.826 6.104C67.274 6.46667 67.498 6.89333 67.498 7.384C67.498 8.088 67.3167 8.6 66.954 8.92C66.5913 9.21867 66.1967 9.368 65.77 9.368C65.3647 9.368 64.9913 9.29333 64.65 9.144C64.33 8.99467 63.9567 8.92 63.53 8.92C63.146 8.92 62.7513 9.016 62.346 9.208C61.962 9.37867 61.5993 9.656 61.258 10.04C60.938 10.424 60.6713 10.904 60.458 11.48C60.266 12.0347 60.17 12.696 60.17 13.464V21.048C60.17 21.6027 59.9887 22.072 59.626 22.456C59.2633 22.8187 58.8047 23 58.25 23ZM76.8403 5.56C77.7363 5.56 78.5576 5.69867 79.3043 5.976C80.0509 6.25333 80.6909 6.60533 81.2243 7.032C81.7789 7.45867 82.2056 7.896 82.5043 8.344C82.8243 8.77067 82.9843 9.13333 82.9843 9.432L82.1523 9.848V7.512C82.1523 6.95733 82.3336 6.49867 82.6963 6.136C83.0589 5.752 83.5176 5.56 84.0723 5.56C84.6269 5.56 85.0856 5.74133 85.4483 6.104C85.8109 6.46667 85.9923 6.936 85.9923 7.512V21.752C85.9923 23.608 85.5869 25.0907 84.7763 26.2C83.9869 27.3307 82.9416 28.1413 81.6403 28.632C80.3389 29.144 78.9416 29.4 77.4483 29.4C77.0216 29.4 76.4669 29.3467 75.7843 29.24C75.1016 29.1333 74.4509 29.0053 73.8323 28.856C73.2136 28.7067 72.7443 28.568 72.4243 28.44C71.7843 28.1627 71.3363 27.8107 71.0803 27.384C70.8456 26.9787 70.8029 26.5413 70.9523 26.072C71.1443 25.4533 71.4536 25.0267 71.8802 24.792C72.3069 24.5787 72.7549 24.5573 73.2243 24.728C73.4376 24.792 73.7896 24.92 74.2803 25.112C74.7709 25.304 75.3043 25.4747 75.8802 25.624C76.4776 25.7947 77.0003 25.88 77.4483 25.88C79.0483 25.88 80.2323 25.56 81.0003 24.92C81.7683 24.28 82.1523 23.3947 82.1523 22.264V19.48L82.5363 19.768C82.5363 20.0453 82.3869 20.3867 82.0883 20.792C81.8109 21.176 81.4163 21.56 80.9043 21.944C80.4136 22.328 79.8269 22.6587 79.1443 22.936C78.4616 23.192 77.7363 23.32 76.9683 23.32C75.4536 23.32 74.0883 22.9467 72.8723 22.2C71.6563 21.432 70.6963 20.3867 69.9923 19.064C69.2883 17.72 68.9363 16.184 68.9363 14.456C68.9363 12.7067 69.2883 11.1707 69.9923 9.848C70.6963 8.504 71.6456 7.45867 72.8403 6.712C74.0349 5.944 75.3683 5.56 76.8403 5.56ZM77.4483 9.08C76.4883 9.08 75.6456 9.31467 74.9203 9.784C74.1949 10.2533 73.6296 10.8933 73.2243 11.704C72.8189 12.5147 72.6163 13.432 72.6163 14.456C72.6163 15.4587 72.8189 16.3653 73.2243 17.176C73.6296 17.9867 74.1949 18.6267 74.9203 19.096C75.6456 19.5653 76.4883 19.8 77.4483 19.8C78.4296 19.8 79.2829 19.5653 80.0083 19.096C80.7336 18.6267 81.2989 17.9867 81.7043 17.176C82.1096 16.3653 82.3123 15.4587 82.3123 14.456C82.3123 13.432 82.1096 12.5147 81.7043 11.704C81.2989 10.8933 80.7336 10.2533 80.0083 9.784C79.2829 9.31467 78.4296 9.08 77.4483 9.08ZM102.847 5.88C103.401 5.88 103.86 6.072 104.222 6.456C104.585 6.81867 104.767 7.27733 104.767 7.832V21.432C104.767 23.3947 104.393 24.952 103.647 26.104C102.921 27.2773 101.94 28.12 100.703 28.632C99.4652 29.144 98.0785 29.4 96.5425 29.4C95.8598 29.4 95.1345 29.3467 94.3665 29.24C93.5985 29.1333 92.9692 28.9733 92.4785 28.76C91.8385 28.4827 91.3905 28.1307 91.1345 27.704C90.8998 27.2987 90.8572 26.8613 91.0065 26.392C91.1985 25.7733 91.5078 25.3467 91.9345 25.112C92.3612 24.8987 92.8092 24.8773 93.2785 25.048C93.6198 25.1547 94.0678 25.3147 94.6225 25.528C95.1772 25.7627 95.8172 25.88 96.5425 25.88C97.5238 25.88 98.3345 25.7413 98.9745 25.464C99.6358 25.208 100.127 24.76 100.447 24.12C100.788 23.5013 100.959 22.648 100.959 21.56V19.416L101.631 20.184C101.268 20.888 100.809 21.4747 100.255 21.944C99.7212 22.392 99.0812 22.7333 98.3345 22.968C97.5878 23.2027 96.7345 23.32 95.7745 23.32C94.6438 23.32 93.6518 23.064 92.7985 22.552C91.9665 22.0187 91.3158 21.2933 90.8465 20.376C90.3772 19.4373 90.1425 18.3707 90.1425 17.176V7.832C90.1425 7.27733 90.3238 6.81867 90.6865 6.456C91.0492 6.072 91.5078 5.88 92.0625 5.88C92.6172 5.88 93.0758 6.072 93.4385 6.456C93.8012 6.81867 93.9825 7.27733 93.9825 7.832V16.024C93.9825 17.4107 94.2812 18.392 94.8785 18.968C95.4972 19.5227 96.3505 19.8 97.4385 19.8C98.1852 19.8 98.8145 19.6613 99.3265 19.384C99.8385 19.0853 100.233 18.6587 100.511 18.104C100.788 17.528 100.927 16.8347 100.927 16.024V7.832C100.927 7.27733 101.108 6.81867 101.471 6.456C101.833 6.072 102.292 5.88 102.847 5.88ZM113.244 21.048C113.244 21.6027 113.041 22.072 112.636 22.456C112.23 22.8187 111.761 23 111.228 23C110.63 23 110.15 22.8187 109.788 22.456C109.425 22.072 109.244 21.6027 109.244 21.048V2.552C109.244 1.99733 109.436 1.53867 109.82 1.176C110.204 0.791999 110.694 0.599998 111.292 0.599998C111.804 0.599998 112.252 0.791999 112.636 1.176C113.041 1.53867 113.244 1.99733 113.244 2.552V21.048ZM138.792 23.896C139.24 23.896 139.656 24.0773 140.04 24.44C140.424 24.824 140.616 25.2613 140.616 25.752C140.616 26.2427 140.392 26.7013 139.944 27.128C139.518 27.576 138.963 27.9707 138.28 28.312C137.598 28.6533 136.883 28.92 136.136 29.112C135.411 29.304 134.75 29.4 134.152 29.4C132.83 29.4 131.774 29.272 130.984 29.016C130.195 28.7813 129.544 28.504 129.032 28.184C128.52 27.8853 128.04 27.608 127.592 27.352C127.144 27.1173 126.6 27 125.96 27C125.555 27 125.224 27.064 124.968 27.192C124.734 27.3413 124.467 27.48 124.168 27.608C123.891 27.7573 123.496 27.832 122.984 27.832C122.451 27.832 122.003 27.6293 121.64 27.224C121.278 26.8187 121.096 26.3813 121.096 25.912C121.096 25.08 121.47 24.5253 122.216 24.248L128.84 21.784L131.72 22.488L125.512 24.792L127.336 23.736C128.083 23.736 128.734 23.8427 129.288 24.056C129.864 24.2907 130.408 24.5467 130.92 24.824C131.432 25.1013 131.955 25.3467 132.488 25.56C133.043 25.7947 133.672 25.912 134.376 25.912C134.952 25.912 135.432 25.816 135.816 25.624C136.222 25.432 136.574 25.2187 136.872 24.984C137.235 24.7067 137.555 24.4507 137.832 24.216C138.131 24.0027 138.451 23.896 138.792 23.896ZM138.664 11.8C138.664 13.4 138.398 14.8933 137.864 16.28C137.331 17.6667 136.574 18.8933 135.592 19.96C134.632 21.0053 133.48 21.8267 132.136 22.424C130.814 23.0213 129.363 23.32 127.784 23.32C126.206 23.32 124.755 23.0213 123.432 22.424C122.11 21.8267 120.958 21.0053 119.976 19.96C119.016 18.8933 118.27 17.6667 117.736 16.28C117.203 14.8933 116.936 13.4 116.936 11.8C116.936 10.2 117.203 8.70667 117.736 7.32C118.27 5.93333 119.016 4.71733 119.976 3.672C120.958 2.60533 122.11 1.77333 123.432 1.176C124.755 0.578665 126.206 0.279999 127.784 0.279999C129.363 0.279999 130.814 0.578665 132.136 1.176C133.48 1.77333 134.632 2.60533 135.592 3.672C136.574 4.71733 137.331 5.93333 137.864 7.32C138.398 8.70667 138.664 10.2 138.664 11.8ZM134.504 11.8C134.504 10.3707 134.216 9.08 133.64 7.928C133.064 6.75467 132.275 5.82667 131.272 5.144C130.27 4.46133 129.107 4.12 127.784 4.12C126.462 4.12 125.299 4.46133 124.296 5.144C123.294 5.82667 122.504 6.744 121.928 7.896C121.374 9.048 121.096 10.3493 121.096 11.8C121.096 13.2293 121.374 14.5307 121.928 15.704C122.504 16.856 123.294 17.7733 124.296 18.456C125.299 19.1387 126.462 19.48 127.784 19.48C129.107 19.48 130.27 19.1387 131.272 18.456C132.275 17.7733 133.064 16.856 133.64 15.704C134.216 14.5307 134.504 13.2293 134.504 11.8Z" fill="#21CABA"/>
</svg>
